<?xml version="1.0" encoding="utf-8" ?>
<svg xmlns="http://www.w3.org/2000/svg" xmlns:xlink="http://www.w3.org/1999/xlink" width="512" height="512">
	<path d="M255.375 145.258L235.509 145.266L233.363 136.019C230.072 123.405 225.061 111.399 216.049 101.774L220.285 113.042C223.735 123.712 224.429 134.12 224.672 145.229L185.185 145.337L185.208 126.583C183.998 106.154 173.348 84.6908 156.786 72.3351C155.845 71.633 154.202 71.2089 153.665 70.0614C153.316 69.3169 153.587 47.2477 153.581 44.4698C178.211 45.7605 206.251 54.6669 224.178 72.4721C229.7 51.4737 240.568 37.6272 255.782 22.8104C258.547 24.92 261.077 28.0992 263.41 30.6798C274.388 42.8241 284.166 56.4258 287.648 72.7401C304.97 58.4791 321.334 49.6453 344.159 46.1347C348.979 45.3934 353.777 45.2453 358.604 44.6983L358.474 70.3712C358.186 70.7075 357.984 70.9002 357.574 71.086C353.558 72.9051 350.117 76.6466 347.109 79.8309C328.56 99.462 325.634 119.924 326.331 145.122C320.241 145.613 313.841 145.228 307.721 145.23C300.988 145.234 293.863 145.682 287.168 144.985C287.245 129.919 289.989 115.914 295.648 101.853C287.885 111.491 277.467 131.882 276.219 144.774L255.375 145.258Z"/>
	<path d="M211.226 293.17C201.984 283.085 191.508 273.792 180.152 266.135L170.308 259.924C166.308 257.55 165.718 258.907 165.744 254L165.826 174.294L237.46 174.273C238.442 173.871 240.455 174.05 241.57 174.019C242.026 177.432 241.658 181.38 241.658 184.86L241.671 317.257C241.684 323.252 241.511 329.26 242.204 335.224C241.259 333.499 238.825 331.007 237.345 328.771L222.436 306.934C218.931 302.127 215.185 297.607 211.226 293.17Z"/>
	<path d="M300.965 292.716C288.957 306.026 278.822 319.821 270.145 335.506L270.124 177.019C270.111 176.209 269.98 175.343 270.336 174.595L272.39 174.335L346.055 174.26L346.121 254.353C346.143 257.37 346.342 256.888 343.619 258.259C327.208 266.526 313.517 279.514 300.965 292.716Z"/>
	<path d="M235.42 485.296L222.147 485.156C111.363 479.074 28.5361 378.233 48.0306 269.745L49.7965 260.926C50.2165 258.916 50.5307 256.803 51.2429 254.875L52.0918 254.625C89.8013 254.673 127.664 263.696 159.25 284.981C207.377 317.411 235.895 371.795 240.837 429.182C241.651 438.627 241.654 447.944 241.665 457.41L241.688 485.27L235.42 485.296Z"/>
	<path d="M282.812 485.296L270.431 485.374L270.252 457.739C270.257 448.567 270.206 439.512 270.946 430.366C279.13 329.255 352.565 256.204 454.423 254.663L461.189 254.605L463.907 268.476C474.781 336.041 450.709 402.383 396.688 444.461C364.595 469.46 323.816 485.378 282.812 485.296Z"/>
</svg>
