<?xml version="1.0" encoding="utf-8" ?>
<svg xmlns="http://www.w3.org/2000/svg" xmlns:xlink="http://www.w3.org/1999/xlink" width="512" height="512">
	<path d="M243.028 147.125C243.543 147.05 243.406 147.02 243.824 147.1C246.21 147.554 248.36 147.835 250.81 147.805C251.7 147.795 252.526 147.566 253.402 147.552C255.245 147.524 257.061 147.594 258.898 147.368L259.25 147.323L259.423 147.625L258.875 148.013L257.795 148.519C256.061 149.278 254.404 149.224 252.556 149.242C249.189 149.274 246.387 149.13 243.218 147.875L243.028 147.125Z"/>
	<path d="M258.864 128.125C259.434 128.017 259.453 127.976 259.956 128.25C260.058 129.424 259.991 130.494 259.244 131.461C258.153 131.529 256.847 130.567 255.855 130.051C254.075 130.221 252.485 130.498 251.062 131.696L250.625 132.058C249.886 132.454 248.923 131.862 248.183 131.59L246.221 130.798C245.754 130.179 245.554 129.935 245.532 129.125L246 128.696C247.059 128.786 248.234 129.732 249.137 130.285C250.48 129.695 251.947 128.887 253.409 128.696C255.155 128.467 256.828 128.644 258.566 128.205L258.864 128.125Z"/>
	<path d="M222.488 105.125C224.522 104.553 227.235 107.365 229.246 107.769C232.16 108.354 235.45 107.586 238.202 106.697C238.673 106.545 238.933 106.434 239.431 106.549C239.434 107.227 239.419 107.906 239.546 108.574L239.625 108.967C238.418 109.869 235.006 110.262 233.478 110.428C230.476 110.755 227.678 109.313 224.875 108.519C223.886 108.24 223.475 108.338 222.625 107.651C222.306 106.718 222.36 106.094 222.488 105.125Z"/>
	<path d="M229.361 92.7865C232.568 92.7594 236.233 93.7584 238.825 95.6677C239.914 96.4693 240.946 97.5021 242.193 98.0439C242.595 98.219 242.802 98.3342 243.123 98.625C242.755 99.2766 242.456 99.2986 241.788 99.6003C239.847 99.5042 236.86 97.4867 235.067 96.5562L232.875 95.5835C231.847 95.2072 229.216 94.2762 228.202 94.3715C227.852 94.4044 227.117 94.7872 226.76 94.9279C224.899 95.6615 223.308 96.7666 221.5 97.5716L221.244 97.375C221.293 97.1124 221.303 96.985 221.429 96.724C222.699 94.0837 226.837 93.417 229.361 92.7865Z"/>
	<path d="M173.358 189.376C173.105 187.081 172.744 184.79 172.161 182.553C171.264 179.115 170.182 175.719 170.548 172.125C170.685 170.774 171.293 168.329 172.375 167.475L173 167.554C173.269 167.826 173.575 168.014 173.657 168.405C173.851 169.328 173.46 170.615 173.449 171.604C173.429 173.334 173.555 175.025 173.751 176.741C174.328 179.402 174.655 181.967 174.727 184.691C174.405 185.602 174.441 186.454 174.197 187.375C174.02 188.039 174.206 189.905 173.776 190.223L173.377 190.455L173.358 189.376ZM173.358 189.376L173.377 190.455L173.776 190.223C174.206 189.905 174.02 188.039 174.197 187.375C174.441 186.454 174.405 185.602 174.727 184.691C174.655 181.967 174.328 179.402 173.751 176.741C173.698 177.344 173.789 178.182 173.375 178.623C173.026 178.162 172.941 178.168 172.894 177.584C172.841 176.92 172.625 176.911 172.391 176.375C172.32 176.213 172.321 175.988 172.312 175.812C172.135 176.568 172.145 176.986 172.285 177.75L171.777 177.751C171.697 178.205 171.595 178.772 171.875 179.188L172.186 179.513L172.312 181.688L172.439 181.5L172.633 181.347L172.815 182.808L173.082 182.501L173.319 182.75C173.264 183.583 173.121 184.487 173.375 185.293L173.638 185C173.71 186.372 173.838 187.996 173.558 189.345L173.358 189.376Z"/>
	<defs>
		<linearGradient id="gradient_0" gradientUnits="userSpaceOnUse" x1="171.44199" y1="180.11908" x2="173.57187" y2="178.87282">
			<stop offset="0" stop-color="#010001" stop-opacity="0.96078432"/>
			<stop offset="1" stop-color="black"/>
		</linearGradient>
	</defs>
	<path fill="url(#gradient_0)" d="M173.358 189.376L173.558 189.345C173.838 187.996 173.71 186.372 173.638 185L173.375 185.293C173.121 184.487 173.264 183.583 173.319 182.75L173.082 182.501L172.815 182.808L172.633 181.347L172.439 181.5L172.312 181.688L172.186 179.513L171.875 179.188C171.595 178.772 171.697 178.205 171.777 177.751L172.285 177.75C172.145 176.986 172.135 176.568 172.312 175.812C172.321 175.988 172.32 176.213 172.391 176.375C172.625 176.911 172.841 176.92 172.894 177.584C172.941 178.168 173.026 178.162 173.375 178.623C173.789 178.182 173.698 177.344 173.751 176.741C174.328 179.402 174.655 181.967 174.727 184.691C174.405 185.602 174.441 186.454 174.197 187.375C174.02 188.039 174.206 189.905 173.776 190.223L173.377 190.455L173.358 189.376Z"/>
	<path d="M279.964 106.375L280.631 106.302C281.447 106.783 281.381 106.888 281.666 107.75L281.375 108.326C279.655 109.184 277.795 109.849 275.918 110.271C273.071 110.91 268.136 111.246 265.379 110.264C264.535 109.963 263.694 109.357 262.94 108.875C262.58 108.747 262.418 108.695 262.033 108.781L260.875 108.986L260.757 108.5L262.068 106.589C265.949 107.971 270.214 108.48 274.283 107.721C276.203 107.363 278.031 106.718 279.964 106.375Z"/>
	<path d="M248.23 138.557C252.941 138.003 257.211 140.642 261.729 140.139L262.125 140.09C262.999 139.995 263.468 139.936 264.191 139.39C264.599 139.082 264.752 138.889 265.288 138.875C265.993 139.311 266.575 139.606 266.964 140.375L266.75 140.765C266.378 140.828 266.061 140.859 265.684 140.817C265.103 140.753 264.663 140.673 264.118 140.93L260.665 142.396L254.443 141.209C252.834 140.9 250.961 140.13 249.365 140.417L249 140.49C247.088 140.858 245.256 141.602 243.375 141.959C242.357 142.152 241.111 142.077 240.063 142.132C239.508 141.699 239.1 141.322 238.723 140.719C238.462 140.304 238.259 140.008 237.875 139.688C237.356 139.767 237.21 139.806 236.7 139.625L237.03 139.056L238 138.857C238.862 139.315 239.197 139.675 239.719 140.503C239.954 140.876 240.098 140.842 240.5 140.993C240.907 140.692 241.263 140.439 241.74 140.26L248.23 138.557Z"/>
	<path d="M268.661 92.8147C273.017 92.497 279 95.0289 282.501 97.6626C283.246 98.2227 284.056 98.9189 284.197 99.875C283.358 100.145 282.937 99.7981 282.125 99.4889L273.559 95.8631C271.296 94.9925 269.377 94.8853 267 95.2235C263.246 95.7578 260.829 98.327 257.337 99.4412L257.521 99.1275C259.297 96.1882 261.967 94.3085 265.315 93.4886L268.661 92.8147Z"/>
	<path d="M332.204 160.342L332.546 160.316C335.866 160.285 339.011 162.361 341.358 164.507L339.784 163.97C334.367 162.306 329.578 163.289 324.725 165.906C326.032 167.691 327.476 169.446 328.958 171.091C331.271 173.657 334.848 176.411 334.875 180.112L334.396 180.155C332.685 179.15 331.443 177.82 330 176.494C326.795 173.551 323.638 170.302 320.295 167.537C319.092 166.542 316.347 165.314 315.86 164.001C317.392 162.009 321.036 163.833 323.22 163.127C326.282 162.138 328.944 160.75 332.204 160.342Z"/>
	<path d="M103.706 219.541C106.791 219.367 110.493 219.846 113.5 220.547C114.901 220.874 116.219 221.489 117.626 221.782C119.468 222.164 123.454 222.454 124.875 223.601C122.301 224.021 119.351 223.146 116.777 222.833C112.194 222.276 106.68 224.165 102.458 225.767C100.692 226.633 98.9327 227.474 97.382 228.699C94.8129 230.729 92.6807 233.272 89.9706 235.109L88.6988 232.367C88.8502 231.663 89.0946 230.99 89.3761 230.328C91.5577 225.201 98.8404 221.512 103.706 219.541Z"/>
	<path d="M376.976 230.101C378.394 230.219 379.626 230.634 381 230.961L390.734 233.336C394.319 234.075 398.172 233.839 401.705 234.709C408.522 236.387 414.703 239.85 420.731 243.324C424.421 245.451 428.175 247.757 431.432 250.519C441.834 259.341 447.289 272.127 452.225 284.449C453.828 288.45 455.111 292.57 457.027 296.447C457.873 298.16 458.964 299.794 459.97 301.418C454.51 297.206 448.097 294.453 442.089 291.153L424.259 281.206C418.255 278.184 411.439 275.282 406.136 271.154C399.258 265.799 399.426 257.692 398.535 249.807C398.368 246.957 397.735 244.027 396.327 241.52C395.881 240.725 395.262 240.058 394.759 239.302C393.914 238.031 393.135 237.015 392.551 235.582L395.209 237.845C399.031 240.679 403.474 245.837 403.912 250.759C403.991 251.645 403.707 252.654 403.627 253.55C403.433 255.722 403.527 258.431 403.987 260.556L404.084 260.975L404.27 261.79C405.06 264.846 406.553 267.298 409.019 269.294C414.501 273.733 422.146 275.848 428.477 278.88L450.083 290.384C449.692 286.17 448.369 282.144 447.006 278.155C444.567 271.014 441.16 263.807 436.312 257.974C430.807 251.35 423.634 246.643 416.227 242.437C411.644 239.835 406.482 237.003 401.313 235.849C399.354 235.411 397.217 235.513 395.221 235.24C394.194 235.1 393.231 234.653 392.209 234.536C390.894 234.385 389.517 234.551 388.216 234.293C386.563 233.966 384.907 233.107 383.328 232.51C381.295 231.742 379.264 231.243 377.295 230.262L376.976 230.101Z"/>
	<path d="M170.506 44.0174C172.651 38.3255 176.43 33.26 182.117 30.7122C183.138 30.255 184.272 29.7252 185.375 29.5207C186.564 29.3003 187.771 29.3253 188.954 29.071C189.743 28.9015 190.731 29.3017 191.5 29.5115C194.771 30.4037 197.56 31.8934 200.318 33.837C203.554 36.1164 207.378 38.4732 208.501 42.5L208.751 43.2667C213.965 39.0769 219.221 35.1522 224.923 31.6491C228.447 29.4845 233.208 26.5416 237.534 26.9633C238.616 27.0688 239.72 27.686 240.707 28.118L243.58 29.6663C242.492 35.3708 240.455 40.8826 240.217 46.75C240.106 49.4683 240.597 52.1261 240.639 54.837C240.654 55.8048 240.648 57.4064 240.252 58.3017C239.909 59.0796 238.814 60.0104 238.207 60.625C236.143 62.7132 233.371 64.9689 232.018 67.5932C231.229 69.1237 230.857 70.6587 230.351 72.292C229.351 75.5219 228.492 78.8316 227.307 82C226.528 84.0814 225.648 86.1447 224.584 88.0958C223.534 90.0225 222.259 91.9064 221.437 93.9428C220.807 95.5027 220.158 97.0952 219.746 98.7288C218.959 101.848 218.695 105.06 217.946 108.18C217.235 111.141 216.054 114.003 215.432 116.968C215.205 118.052 214.982 119.337 215.147 120.437C215.602 123.469 217.952 126.449 219.341 129.142L223.559 137.34C224.431 139.054 225.192 140.816 226.28 142.41C230.305 148.307 235.329 153.379 241.232 157.384C243.255 158.756 245.724 160.25 248.164 160.656C249.932 160.95 251.73 161.064 253.5 160.79C255.81 160.433 258.03 160.221 260.192 159.244C263.29 157.846 265.931 155.38 268.501 153.208C272.212 150.072 275.862 147.155 278.825 143.267C281.265 140.065 283.561 135.687 284.205 131.672C284.332 130.88 284.418 127.749 284.949 127.375C285.514 128.403 285.246 130.519 285.058 131.683L285.164 131.848L290.626 126.778C289.61 120.756 288.253 114.967 287.611 108.867C287.34 106.291 287.479 103.624 287.422 101.033C287.402 100.12 287.433 98.4883 287.069 97.6624C286.859 97.1863 285.323 96.1466 284.843 95.7034C281.933 93.0122 279.338 90.1779 276.09 87.8599C272.169 85.0619 267.652 83.5438 263.515 81.1483C259.737 78.9608 256.776 76.2842 253.723 73.2045C248.587 68.024 244.036 62.4537 242.507 55.125C241.825 51.8617 242.008 48.3994 242.188 45.099C242.433 40.5901 242.443 36.0585 245.209 32.2194C247.826 28.5871 251.413 26.5274 255.805 25.85C258.353 25.4569 261.179 25.9645 263.641 26.6656C271.27 28.8387 278.34 33.6264 285.048 37.7654C290.883 41.3654 296.666 45.1677 302.928 47.9707C303.531 48.2409 305.414 49.3219 305.888 49.3022C306.094 49.2937 307.299 48.3586 307.531 48.2056C312.689 44.8038 319.058 40.2609 325.625 41.3956L325.941 41.4476C331.226 42.3914 337.336 47.8038 340.311 52.1562C342.603 55.5091 344.095 59.1102 345.219 63C346.161 66.2599 346.797 68.8411 346.143 72.2384C345.219 77.039 342.856 82.374 339.12 85.6581C336.388 88.0596 333.544 89.7927 331.941 93.2215C330.529 96.2415 329.486 99.8261 329.029 103.125L328.573 107.586C328.554 107.831 328.592 108.698 328.494 108.866C328.33 109.145 327.6 109.589 327.322 109.814L323.023 113.202C320.507 115.364 318.204 117.941 316.105 120.504C314.921 121.949 313.703 123.35 312.813 125L312.6 125.39C311.544 127.362 311.087 129.698 310.904 131.914C310.834 132.755 310.428 133.819 310.625 134.608C311.364 134.051 311.596 133.634 312.01 132.818C314.272 128.371 317.261 124.698 320.889 121.289L319.902 124.239C319.496 125.51 318.358 126.51 317.461 127.459C316.11 128.889 314.749 130.316 313.532 131.866C312.597 133.054 311.923 134.428 311.037 135.653C309.271 138.096 309.737 142.298 309.907 145.128C310.04 147.325 310.155 149.521 310.569 151.686L310.952 153.316L311.298 155.155C314.788 150.526 317.773 145.722 323.004 142.87C323.807 142.433 324.801 141.833 325.698 141.681C326.252 141.588 326.873 141.751 327.413 141.875L328.018 141.375L328.012 140.969C328.068 139.551 333.095 134.156 334.24 132.234C335.105 130.781 336.056 129.212 336.63 127.618C337.862 124.201 338.462 120.578 339.63 117.131C340.228 115.365 341.161 113.633 342.039 111.993C342.962 110.271 344.187 108.36 345.749 107.154C346.922 106.248 348.018 105.79 349.453 105.467C350.881 105.146 352.09 105.205 353.214 104.146C353.555 103.825 353.67 103.123 353.825 102.665C354.954 99.3187 355.837 96.3859 359.094 94.5139C361.224 93.2897 363.547 93.2532 365.875 92.7085L371.978 91.0653C377.693 89.4532 382.976 86.934 388.067 83.9375C383.836 90.109 377.012 93.679 370.465 96.9469C368.551 97.9025 366.188 98.7558 364.545 100.13C363.828 100.73 363.579 101.284 363.755 102.204C364.145 104.248 365.639 105.997 366.494 107.875C368.407 112.077 369.94 116.965 369.456 121.625C369.053 125.496 367.477 128.907 365.801 132.341C372.908 130.456 379.25 126.615 385.125 122.331C387.263 120.771 389.352 119.294 391.168 117.341C392.944 115.431 394.478 113.002 395.815 110.755C396.762 109.165 397.572 107.688 398.667 106.186C399.864 111.936 390.996 128.723 387.715 133.734C381.905 142.607 373.314 150.017 363.827 154.646C360.579 156.23 357.384 157.635 353.826 158.373C349.905 159.186 345.912 159.428 341.915 159.264C341.428 159.244 340.376 159.327 339.94 159.162C339.571 159.022 339.12 158.64 338.776 158.407C334.922 155.797 330.831 152.367 326.007 152.116C324.165 152.86 322.335 154.002 320.981 155.474C319.213 157.395 317.571 160.004 315.375 161.448C314.845 160.925 314.742 160.566 314.535 159.875C315.085 156.159 317.893 153.276 320.785 151.12C322.641 149.736 326.382 147.33 328.77 147.241C330.753 148.219 332.457 149.402 334.07 150.919C335.924 152.665 338.46 155.642 340.864 156.585C342.655 157.288 344.466 157.403 346.312 157.792C347.513 157.79 348.677 157.797 349.868 157.617C352.888 157.088 355.955 156.32 358.776 155.101C361.425 153.956 363.966 152.222 366.322 150.58C367.567 149.713 368.918 148.93 370.083 147.961C371.46 146.816 372.661 145.435 373.938 144.181C378.32 139.878 382.138 135.367 385.667 130.338C388.013 126.993 389.341 123.837 390.89 120.119C389.88 120.961 388.898 121.843 387.756 122.503L377.979 128.722C371.047 132.867 363.261 135.665 355.511 137.811C350.821 139.11 345.678 139.255 341.095 140.847C340.459 141.068 339.915 141.07 339.25 141.04L339.051 141.375C341.303 143.281 344.33 143.797 346.973 144.921C349.399 145.953 351.615 147.386 353.652 149.055C348.453 147.474 343.088 146.082 337.75 145.071C334.664 144.486 331.261 143.894 328.125 144.396L327.812 144.443C322.957 145.243 315.854 150.168 313.084 154.148C312.701 154.699 312.029 155.741 311.872 156.393C311.787 156.744 311.939 157.54 311.965 157.915C312.075 159.504 312.236 161.078 312.57 162.639C313.188 165.522 314.4 168.315 315.52 171.034C319.664 181.093 327.039 188.893 335.75 195.255C342.078 199.876 348.765 203.742 354.811 208.763C356.893 210.491 358.967 212.262 360.88 214.176L366.288 219.674C367.127 220.534 368.032 221.759 369.056 222.386L369.432 222.6C365.37 212.542 360.714 203.71 352.522 196.393C349.608 193.79 346.146 191.578 343.482 188.721L343.068 188.314C341.843 187.192 341.243 185.571 340.326 184.218C339.695 183.287 338.491 182.057 338.525 180.875C338.544 180.256 338.789 179.818 339.125 179.323C340.884 179.144 341.316 180.38 342.799 180.881C343.372 181.074 344.041 181.06 344.637 181.212L349.125 182.497C354.571 183.77 360.182 183.605 365.649 185.017C367.124 185.398 368.711 185.301 370.225 185.268C368.076 183.318 365.541 181.757 363.183 180.069C358.999 177.074 355.534 174.23 350.577 172.628C346.293 171.243 341.481 172.148 337.073 171.315C336.291 171.167 334.973 170.19 334.54 169.507C334.334 169.181 334.418 169.24 334.528 168.818C335.908 168.891 336.314 169.035 337.375 169.924C341.317 170.583 345.276 169.376 349.125 170.513L349.542 170.63C354.571 172.073 358.275 175.06 362.467 177.983C365.623 180.185 369.171 182.453 371.684 185.396C370.415 185.994 368.94 186.801 367.577 187.137C365.839 187.565 363.785 187.404 362.005 187.357C357.049 187.225 351.702 186.907 347 185.223C345.107 184.544 343.44 184.062 341.436 183.755L344.739 187.56C346.327 189.217 348.226 190.749 350.004 192.2C352.679 194.385 355.756 195.962 358.442 198.126C366.53 204.641 371.568 214.527 372.452 224.813C372.742 224.606 372.758 224.491 372.918 224.175L377.732 216.454C384.012 208.042 391.168 199.8 401.668 196.833C404.39 196.064 407.318 196.374 410.107 196.498C411.107 196.543 412.584 196.704 413.552 196.504C413.895 196.433 414.759 195.684 415.067 195.465C420.091 191.88 423.995 186.788 428.589 182.692C428.49 185.152 428.879 187.769 428.402 190.176C427.84 193.016 426.411 195.572 426.085 198.531C425.711 201.929 426.423 205.863 425.477 209.125C425.041 210.628 424.187 212.026 423.005 213.06C422.372 213.613 421.683 214.059 420.821 213.968C420.477 213.931 420.223 213.812 419.904 213.69C418.974 213.333 418.242 213.386 417.345 213.822C413.883 215.506 410.911 218.816 407.708 220.985L441.813 221.885C440.221 222.891 438.599 223.794 436.75 224.244C426.183 226.818 415.01 226.33 404.241 226.933L393.667 227.655C391.359 227.875 389.047 228.223 386.725 228.24C384.333 228.257 380.866 228.042 378.574 227.409L378.125 227.256C376.801 226.907 374.331 227.508 372.923 227.646C375.31 229.953 377.821 232.362 379.718 235.098C381.559 237.754 382.894 240.704 384.797 243.339C384.433 241.569 384.257 239.614 383.753 237.893C383.443 236.834 382.12 234.934 382.375 233.988C383.239 233.785 384.323 234.294 385.071 234.787C386.664 235.836 387.275 237.652 388.073 239.294C388.944 241.084 389.933 242.824 390.262 244.807C390.53 246.427 390.254 247.588 389.404 248.975C389.348 249.067 388.829 249.804 388.828 249.875C388.817 250.731 394.253 261.799 394.926 263.5C397.888 270.987 400.477 278.925 402.418 286.75C411.934 325.108 407.878 366.194 388.227 400.795C385.914 404.868 383.794 408.788 381.01 412.58C377.75 417.019 374.397 421.376 370.599 425.375C364.25 432.06 356.72 438.126 349.159 443.375C338.065 451.078 326.658 457.314 314.053 462.193C308.741 464.249 303.198 465.76 297.743 467.375C290.328 469.571 282.541 471.643 274.875 472.729C268.643 473.611 262.551 473.67 256.273 473.717C253.304 473.739 250.275 474.018 247.32 473.889C230.332 473.149 214.175 468.354 198.517 462.007C185.93 456.905 174.014 450.633 163.299 442.183C138.668 422.76 120.834 396.023 111.785 366.054C110.055 360.323 108.221 354.171 107.548 348.216L106.508 338.133L106.282 319.739C106.271 313.77 106.117 307.702 106.597 301.75C107.014 296.574 107.94 291.555 108.98 286.479C110.35 279.794 111.995 273.393 114.498 267.032C116.717 261.393 119.478 255.959 122.174 250.537L126.726 241.297C129.317 236.535 132.492 231.82 135.907 227.617C138.12 224.893 140.716 222.337 142.683 219.436C141.552 219.716 139.777 219.884 138.803 220.439C136.74 221.616 134.947 223.953 133.191 225.569C127.438 230.865 121.457 235.152 117.384 242.003L115.704 245.312C114.825 247.395 113.851 249.508 113.153 251.658C112.747 252.905 112.682 254.235 112.239 255.467L110.572 262.493C107.594 272.747 94.6657 274.96 85.75 277.187L69.1668 281.248C64.744 282.494 60.3214 284.438 56.309 286.659C55.1752 285.081 54.3322 283.27 53.4351 281.548L54.0078 280.697C55.0978 279.137 56.4625 277.732 57.6444 276.233L66.1104 265.55L73.2359 256.725C74.4691 255.198 75.507 253.543 76.8348 252.087C80.0402 248.574 83.7223 246.177 87.3853 243.25C90.4716 240.783 93.4234 237.914 96.927 236.032C100.015 234.373 103.232 233.368 106.521 232.207C109.041 231.316 111.467 229.999 114.117 229.548C119.17 228.688 123.82 226.829 128.72 225.49C126.266 228.058 120.463 229.6 116.996 230.067L115.625 230.271C112.625 230.908 109.809 232.424 106.974 233.541C104.179 234.643 101.101 235.591 98.4757 237.037C95.0061 238.948 91.9419 241.464 88.9222 244.006C83.0741 248.93 77.6831 254.49 73.0246 260.563C68.5589 266.385 64.699 272.762 60.6185 278.865C71.3627 274.909 82.6201 273.032 93.75 270.538C96.6572 269.886 99.9308 269.6 102.703 268.581C112.245 265.074 108.639 254.184 112.316 246.903C113.039 245.472 114.163 244.14 115.076 242.816C117.037 239.969 119.246 237.031 121.671 234.559C126.272 229.87 131.518 225.889 136.078 221.113C135.001 221.281 133.764 221.719 132.689 221.604C129.191 221.232 125.801 220.955 122.366 220.13C115.912 218.58 109.586 216.074 103.219 214.188C102.279 213.91 101.718 213.777 101.231 212.875C101.695 212.07 101.943 212.031 102.752 211.625L102.863 211.161C102.013 210.642 101.069 210.371 100.207 209.876C96.6733 207.846 94.0294 205.055 91.7941 201.662C87.5595 195.233 85.1548 188.118 82.9031 180.822C82.4345 179.304 81.7254 177.72 81.4993 176.157C81.2061 174.131 81.4554 172.034 81.8629 170.04C83.1514 171.434 84.4386 172.928 85.872 174.171C89.642 177.442 93.9658 180.06 97.75 183.309L97.9829 183.125C97.7117 182.462 97.3562 181.854 97.5304 181.125L98 180.982C100.511 181.621 103.124 184.164 105.129 185.79C111.688 191.11 117.911 196.63 123.755 202.728L133.449 212.909C135.23 214.741 136.711 216.497 138.758 218.072C139.432 217.684 141.113 216.997 141.525 216.384C142.122 215.494 142.277 214.029 142.468 213.002C142.738 211.548 143.109 210.049 143.511 208.625C144.159 206.332 145.284 203.873 146.562 201.875C149.878 196.69 156.71 194.456 159.978 189.438C160.537 188.58 161.209 187.663 161.517 186.68C162.506 183.521 160.189 179.487 158.854 176.694C159.798 177.741 160.951 178.88 161.634 180.114C162.828 182.275 163.228 185.527 162.366 187.88C161.896 189.164 160.823 190.119 159.925 191.111C158.424 192.772 156.901 194.43 155.556 196.221C153.972 198.33 152.929 200.875 151.668 203.182C149.858 206.492 147.171 210.193 146.184 213.845C145.957 214.687 145.815 215.844 146.221 216.606C146.632 216.549 146.852 216.456 147.185 216.206L156.955 208.289C162.09 204.424 167.681 200.899 172.523 196.692C173.39 194.315 173.742 192.987 173.377 190.455L173.776 190.223C174.206 189.905 174.02 188.039 174.197 187.375C174.441 186.454 174.405 185.602 174.727 184.691C174.998 185.541 174.746 186.454 175.25 187.199C175.981 187.07 176.367 186.037 176.911 185.51C177.884 184.568 178.638 183.277 179.006 181.97L179.107 181.587C179.832 178.906 179.646 174.76 178.438 172.197C177.802 170.846 176.387 169.776 175.516 168.545C174.46 167.052 173.641 165.244 172.79 163.625C172.479 163.034 171.695 160.983 171.135 160.705C170.512 160.396 169.516 160.353 168.815 160.074C167.035 159.366 165.496 159.131 163.597 159.422C156.124 160.568 148.986 161.397 141.401 160.786C138.785 160.575 136.199 160.406 133.87 159.074C131.245 157.574 128.829 155.728 126.272 154.121C122.897 152 119.292 150.161 115.607 148.64C112.286 147.269 108.818 146.399 105.408 145.291C100.252 143.615 95.5814 141.669 90.8288 139.061C95.5008 147.858 101.507 155.125 109.404 161.238C112.008 163.254 114.88 164.808 117.68 166.519C120.185 168.05 122.728 169.729 125.375 171.002C131.237 173.819 137.502 175.088 143.934 175.695C146.785 175.964 149.765 176.197 152.625 175.958C153.663 175.871 154.645 175.579 155.669 175.462C157.058 175.304 158.582 174.977 159.875 174.428C161.554 173.716 163.406 172.265 164.019 170.504C164.283 169.744 164.369 169.181 164.028 168.45C161.657 167.644 158.914 167.258 156.426 166.928C153.927 166.595 151.717 166.216 149.21 166.679L148.875 166.743L148.497 166.375L148.78 165.807C150.05 165.217 151.395 165.2 152.771 165.206C156.488 165.221 160.109 166.189 163.812 166.511C164.755 166.594 165.585 166.335 166.501 166.375L166.796 166.875C166.642 167.87 166.358 168.741 165.952 169.661C164.749 172.386 163.139 174.325 160.375 175.506C158.365 176.365 156.514 176.467 154.372 176.749C149.765 177.357 145.284 177.737 140.65 177.094C135.591 176.392 130.029 175.156 125.35 173.066C118.869 170.172 112.438 165.504 106.781 161.213C99.3418 155.571 94.6637 148.591 89.5201 141C88.6345 139.693 86.612 137.379 86.5035 135.764C86.4689 135.251 86.5653 135.297 86.875 134.943C88.5464 135.132 90.4755 136.833 91.9766 137.66C93.7415 138.633 95.6613 139.558 97.5211 140.335L108.702 144.375C113.139 145.749 117.441 146.901 121.625 149.003C124.227 150.31 126.786 151.927 129.189 153.572C131.99 155.49 134.727 157.621 138.08 158.478C145.644 160.413 153.011 159.333 160.498 157.623C162.397 157.189 164.793 156.249 166.75 156.501C166.941 156.525 167.238 156.603 167.422 156.669C168.041 156.889 167.887 156.843 168.459 156.625C168.7 155.48 168.753 154.562 168.651 153.401C167.919 145.105 161.333 141.242 155.988 135.85C153.32 133.159 150.944 130.16 148.014 127.733C145.76 125.865 142.923 124.676 140.519 123.004C138.071 121.302 135.914 119.068 133.607 117.164C131.076 119.632 127.923 121.04 125.488 123.576C128.773 124.824 132.239 124.268 135.305 126.084C139.521 128.58 141.084 134.035 144.466 137.481C147.872 140.953 152.322 143.049 156 146.226L160.092 149.91C162.134 151.574 163.871 152.893 165.654 154.876C162.555 153.232 159.233 151.002 155.819 150.146C149.507 148.565 142.26 150.605 136.481 146.779C135.144 145.893 134.252 144.431 133.266 143.191C129.652 138.644 126.156 133.944 124.107 128.459C123.197 126.022 122.885 123.353 122.377 120.809C124.83 119.525 127.562 118.307 129.854 116.76C131.388 115.723 132.664 114.421 133.952 113.105C134.546 113.741 134.659 114.846 135.208 115.582C137.052 118.05 140.055 120.214 142.576 121.977C143.412 121.306 144.048 120.763 145.149 120.61C145.56 120.553 145.282 120.668 145.756 120.25C144.924 118.684 142.453 118.17 141.698 116.36C139.07 110.065 137.628 103.369 136.625 96.6472C136.333 94.6874 136.251 92.6915 135.805 90.753C135.454 89.2296 134.447 85.7626 134.996 84.375L135.625 84.2263L136.125 84.5618C136.521 85.5604 136.462 85.6368 136.213 86.625C136.35 86.7625 136.455 86.9434 136.625 87.0374C137.211 87.3612 138.949 87.4007 139.701 87.595C142.002 88.1892 144.353 88.9887 146.587 89.8038C149.828 90.9867 152.952 92.4207 155.875 94.2561C159.181 96.3318 161.693 99.2467 164.338 102.066C166.835 104.728 169.736 107.54 171.23 110.86C171.649 107.843 171.643 104.716 172.764 101.861C174.78 100.119 176.976 99.2515 179.399 98.1991C180.481 104.685 183.115 110.722 183.585 117.334C184.224 122.368 184.753 127.097 183.984 132.16C182.033 136.648 178.564 140.358 176.177 144.634C174.974 146.79 174.228 149.403 173.467 151.75C173.051 153.03 172.209 154.67 172.814 155.967C173.224 156.846 174.554 157.712 175.311 158.317L179.788 152.25L179.927 152.05C180.663 150.97 181.695 149.233 181.946 147.956C182.223 146.554 182.122 144.798 182.158 143.365C182.957 147.132 183.35 150.6 183.268 154.476C183.241 155.759 183.285 157.306 182.966 158.551C182.573 160.08 181.516 161.682 180.656 163.003L179.747 164.346C180.899 167.643 182.314 171.513 182.728 174.983C183.24 177.946 183.365 180.345 182.882 183.338C182.442 184.337 182.128 185.472 181.54 186.387C180.649 187.775 179.261 189.011 177.921 189.962C176.842 190.728 175.384 191.405 174.762 192.625L175.125 193.19C175.905 193.5 176.027 193.609 176.875 193.418C178.984 191.369 181.227 189.371 183.196 187.189C186.616 183.398 189.331 179.068 191.884 174.672C193.834 171.314 195.805 167.984 196.961 164.255C201.249 150.42 202.057 127.766 194.736 114.858C193.434 112.563 191.917 110.336 190.246 108.29C188.268 105.868 186.017 103.504 184.739 100.615C183.461 97.7241 183.451 94.6497 183.335 91.5553C183.268 89.7779 183.326 87.6675 182.435 86.071L182.247 85.75C177.748 77.8992 169.936 69.97 169.394 60.5277L169.379 60.4996C168.427 55.2511 168.75 49.037 170.506 44.0174ZM255.969 373.018L257.811 384.468L263.76 408.413C264.346 410.514 264.938 412.491 265.798 414.501C266.093 415.192 266.379 416.052 266.942 416.562L267.239 416.818L267.373 417.125L267.875 417.127L266.881 406.813C266.502 393.127 267.653 379.574 274.297 367.319C275.669 364.788 276.693 362.834 278.711 360.698L277.718 370.041C277.579 371.91 277.179 373.738 277.059 375.606C276.783 379.899 277.095 384.12 277.761 388.36L278.299 391.125C278.901 393.26 280.245 393.729 282.038 394.652C281.557 387.535 281.829 380.487 281.755 373.375L281.451 363.685C281.442 362.27 281.244 360.624 281.825 359.298L281.967 359C282.553 357.725 283.308 356.565 284.267 355.536L284.524 355.265C287.174 352.429 290.6 350.091 293.794 347.905L304.755 340.224C308.216 337.659 311.507 334.157 315.213 332.033C313.791 334.872 310.977 336.464 309.548 339.201C307.303 343.503 309.285 349.142 308.272 353.848C307.554 357.181 305.526 360.432 303.969 363.432C299.283 372.46 294.252 381.306 288.414 389.648C286.627 392.201 284.375 394.452 282.666 397.007C281.477 398.784 280.62 400.874 279.596 402.756C277.587 406.451 275.289 409.942 272.602 413.18C271.422 414.603 270.295 416.016 268.7 416.999C268.415 417.175 268.539 417.041 268.373 417.375C268.997 417.509 269.452 417.606 270.078 417.378C272.441 416.515 274.018 414.931 275.731 413.173C277.683 411.171 279.541 409.119 281.215 406.875C283.307 404.072 285.155 401.073 287.836 398.774C290.275 396.682 293.247 395.751 296.167 394.572C298.818 393.501 301.465 392.318 304 390.994C308.171 388.817 312.21 386.26 316.019 383.496C319.62 380.882 323.166 378.015 325.619 374.255C327.684 371.092 329.044 367.54 330.657 364.141C331.574 362.208 332.739 360.369 333.61 358.431C334.819 355.742 335.252 352.793 336.616 350.153C336.912 349.58 336.908 349.511 337.5 349.318L337.875 349.84C337.729 352.688 336.362 354.837 335.681 357.51C332.653 369.387 331.075 381.266 323.577 391.42C317.759 399.299 309.926 405.88 300.808 409.563C294.418 412.145 287.382 413.828 280.76 415.747C278.865 416.297 276.979 416.863 275.134 417.565C273.141 418.323 271.29 419.197 269.155 419.503C264.753 420.134 260.273 419.965 255.842 419.998C251.833 420.028 247.908 420.522 243.875 420.25C238.706 419.901 233.643 418.86 228.625 417.647C225.26 416.834 221.803 416.157 218.498 415.118C215.395 414.144 212.454 412.814 209.5 411.467C205.503 409.643 201.479 407.635 197.965 404.976C194.019 401.988 191.339 397.914 189.175 393.542C186.788 388.72 184.834 383.773 183.548 378.535C182.509 374.306 181.917 370.068 181.224 365.78C180.966 364.182 180.531 362.64 180.304 361.023C180.639 361.423 180.995 361.813 181.18 362.309C182.471 365.764 183.923 368.444 186.025 371.5C187.83 374.124 190.737 376.785 193.278 378.731C195.925 380.757 198.048 381.985 200.066 384.706C201.729 386.949 202.952 389.49 204.205 391.977C207.238 397.998 211.21 402.706 215.392 407.923C216.576 409.4 217.681 411.208 219.152 412.416C221.467 414.316 224.497 415.355 227.297 416.281C226.504 415.299 225.363 414.605 224.514 413.652C222.171 411.019 220.41 407.954 219.539 404.538C218.448 400.258 218.609 395.347 218.655 390.955L220.067 361.728C221.359 363.445 222.951 364.944 224.356 366.571C227.1 369.75 230.094 373.747 231.973 377.498C233.241 380.03 234.592 382.409 235.666 385.046C238.865 392.906 240.868 401.653 242.748 409.916C243.028 411.149 244.139 418.09 244.851 418.625C247.035 417.491 249.388 417.475 251.782 417.211C254.737 416.884 257.537 416.495 260.518 416.37C260.401 412.93 259.354 409.865 258.585 406.542L255.746 393.212C255.199 390.679 254.818 388.052 254.162 385.551C250.068 369.955 243.073 355.44 231.274 344.227L215.625 330.404C212.772 327.637 210.421 324.535 207.813 321.554C204.974 318.309 201.7 315.17 199.225 311.651L199.008 311.34L191.311 316.775L190.582 323.868C190.321 323.386 190.382 323.611 190.326 323.09L189.759 318.544C189.369 318.471 188.706 319.009 188.367 319.216C184.842 321.373 181.894 324.55 178.503 326.96C173.951 330.196 168.825 332.776 163.5 334.458C157.722 336.282 151.499 337.084 145.511 337.897C147.444 345.323 148.753 352.896 151.103 360.219C152.758 365.374 155.526 370.38 158.095 375.127C160.515 379.595 162.838 384.055 165.728 388.255C169.569 393.836 173.837 399.057 178.486 403.978C180.113 405.7 181.733 407.555 183.507 409.125C197.572 421.569 214.338 429.647 232.311 434.689C236.799 435.948 241.281 437.182 245.877 437.982C250.123 438.722 254.459 438.66 258.749 438.486C267.87 438.117 276.227 436.416 285 434.028C295.82 431.082 307.1 426.64 316.305 420.085C323.476 414.979 329.651 409.345 335.687 402.948C343.113 395.077 350.348 385.799 355.261 376.125C361.391 364.052 365.137 351.164 367.393 337.839C364.246 337.448 361.343 336.45 358.659 334.767C356.823 333.616 355.186 332.164 353.299 331.093C350.68 329.605 347.789 328.608 345.071 327.312C342.244 325.963 339.504 324.169 336.902 322.432L327.875 315.763L321.63 311.117L312.123 303.179C310.876 302.238 309.457 301.433 308.159 300.547C308.178 301.528 308.161 302.527 308.3 303.498C308.497 304.885 308.308 305.869 307.992 307.208L305.43 308.392C303.853 310.424 303.108 312.901 302.185 315.266C303.639 315.846 305.23 316.019 306.725 316.457C308.191 316.885 309.657 317.807 311 318.532C312.61 319.402 314.113 320.628 315.422 321.903C318.683 325.08 321.36 328.79 324.29 332.258L330.558 339.786C331.832 341.343 333.239 342.891 334.264 344.625C335.461 346.65 335.017 348.576 334.502 350.75C334.107 352.422 333.447 353.784 332.671 355.308C327.471 352.504 321.933 349.493 316.124 348.226C317.698 343.719 320.737 339.12 321.445 334.425C321.914 331.32 320.07 328.862 318.284 326.525C315.721 323.175 310.025 318.973 305.751 318.459C304.382 318.294 301.121 317.644 299.941 318.254L299.583 318.506L299.259 318.716C296.059 320.836 293.368 325.315 290.938 328.298L283.664 336.934L271.999 350.227C267.864 354.586 263.384 358.662 259.899 363.594C257.689 366.72 256.719 369.277 255.969 373.018ZM238.13 164.287C238.896 170.614 238.873 177.636 237.957 183.943C237.711 185.635 237.19 187.326 236.742 188.975C236.689 189.169 236.501 190.079 236.399 190.183C235.643 193.203 234.287 196.045 232.903 198.821C229.975 204.694 226.649 209.801 222.518 214.902C225.023 215.171 227.506 215.742 230.022 215.867C231.978 215.964 233.963 215.579 235.923 215.512C238.582 215.422 241.143 215.832 243.754 216.23C245.086 216.434 246.943 216.653 247.869 217.733L248.241 218.25L249.388 219.938C246.105 217.911 242.149 216.527 238.216 216.771C236.747 216.863 235.305 217.273 233.844 217.446C231.482 217.725 227.984 217.76 225.654 217.231C224.394 216.945 223.07 216.233 221.856 215.751C219.172 218.56 216.285 221.319 213.812 224.309C213.348 224.871 212.375 225.922 212.247 226.625C212.171 227.045 212.25 227.631 212.251 228.069C212.656 228.775 212.521 229.778 212.538 230.597L212.744 236.902C213.092 242.028 213.387 247.404 214.176 252.474C215.738 258.572 217.055 264.561 220.783 269.795C224.246 267.816 227.928 265.562 229.739 261.828C230.775 259.691 231.245 257.075 231.747 254.757C232.018 253.502 232.404 251.924 233.277 250.947C235.452 248.513 240.75 247.223 243.875 247.276C245.559 247.305 246.289 247.911 247.438 249.065C247.881 249.51 248.601 248.851 249.113 248.559C250.93 247.524 252.696 246.374 254.375 245.129C256.557 243.511 260.648 239.265 263.375 239.524C263.887 239.923 264.025 240.13 264.216 240.75C264.054 241.086 263.903 241.426 263.625 241.688C262.934 242.338 261.839 242.865 261.05 243.445C254.94 247.935 246.853 253.403 239.065 253.873C241.257 252.362 243.786 251.616 245.977 250.113C242.015 250.528 236.874 250.614 233.914 253.532C232.686 256.763 232.492 260.286 231.338 263.567C231.135 264.145 230.536 265.334 230.887 265.876C231.397 266.661 232.415 267.493 233.104 268.134C235.778 270.621 237.884 271.906 241.359 273.04C245.073 271.328 250.416 269.104 253.04 265.875C253.44 265.382 253.4 264.882 253.324 264.29L253.279 263.958C253.17 262.933 253.577 262.164 254.178 261.375C254.494 261.267 254.796 261.108 255.125 261.051C257.9 260.576 266.421 269.929 268.857 271.854C270.735 273.337 273.002 274.59 275.194 275.548C278.71 277.084 280.939 277.199 284.486 275.829C281.888 275.441 279.317 274.161 277 272.952C273.023 270.877 269.531 268.459 266.001 265.714C264.292 264.385 262.529 263.108 261.329 261.268C260.6 260.149 260.25 258.785 259.862 257.519L259.718 257.039C259.014 256.426 257.495 256.245 256.584 256.011C257.55 254.993 258.762 253.208 260.125 253.011C261.898 254.048 262.491 253.478 264.333 253.074C265.186 252.887 266.195 252.947 267.062 253.013C271.559 253.356 274.164 257.351 277.369 259.941C278.942 261.211 281.015 262.193 282.324 263.721C282.475 264.47 282.555 264.531 282.206 265.197C281.971 265.23 281.737 265.319 281.5 265.298C280.434 265.205 278.586 263.49 277.772 262.836L269.231 256.02C271.154 260.16 274.516 264.219 278.317 266.82C279.167 267.403 280.034 268.021 280.968 268.461C282.148 269.016 284.394 269.538 285.125 270.587L284.875 271.216C284.616 271.332 284.288 271.503 284 271.553C282.554 271.804 275.191 267.743 273.795 266.808C272.457 265.912 270.926 264.39 269.501 263.749C269.027 263.535 269.236 263.748 268.942 263.46L264.529 259.238C264.449 258.592 264.383 257.83 264.125 257.228C263.818 256.511 263.073 255.714 262.375 255.381C261.625 255.717 261.662 255.749 261.305 256.5C261.55 258.091 262.386 259.069 263.363 260.278C265.595 263.038 268.09 264.866 270.75 267.149C275.7 271.398 281.472 274.722 288.125 275.226C289.565 275.335 291.259 275.047 292.714 274.949C293.02 274.669 293.321 274.402 293.572 274.07C295.857 271.048 293.998 265.24 293.601 261.677C293.326 259.199 292.888 256.408 291.173 254.478C290.243 253.431 288.915 252.906 287.66 252.358C283.935 250.734 280.076 249.988 276.014 249.992C274.443 249.993 272.673 250.17 271.125 249.972C270.409 249.88 269.833 249.646 269.39 249.06L269.549 248.552C271.073 247.666 273.437 246.504 275.203 246.286C276.535 246.122 278.215 246.52 279.525 246.792C284.312 247.787 289.013 249.5 292.904 252.523L293.185 252.745L294.322 249.242C295.736 244.728 296.158 240.48 296.26 235.766C295.358 227.495 295.143 219.008 292.79 210.963C291.602 206.903 289.88 202.962 288.429 198.993L284.033 185.844C282.785 182.199 281.273 178.393 280.55 174.604C278.95 166.204 279.352 157.535 279.294 149.01C278.237 149.811 277.042 150.525 276.056 151.401C272.25 154.776 268.663 158.265 264.397 161.081C263.047 161.972 261.492 163.023 259.937 163.481L259.625 163.57C256.21 164.655 251.65 163.797 248.125 163.269C246.234 162.986 244.398 162.457 242.651 161.678L238.058 159.609C237.587 159.427 237.615 159.365 237.125 159.576C237.25 161.085 237.895 162.743 238.13 164.287ZM310.031 228.454C312.593 241.606 316.158 254.967 321.415 267.314C324.004 273.395 327.17 279.199 330.256 285.034L332.882 289.875C333.496 291.04 333.979 292.494 335.151 293.214C338.351 295.18 342.473 295.729 346.082 296.43C351.202 297.424 358.027 298.731 362.244 301.939C354.07 300.513 346.163 296.961 337.681 298.116C338.795 301.242 340.411 303.964 341.944 306.879C344.96 312.617 348.149 318.449 351.952 323.705C354.43 326.843 357.286 330.26 360.691 332.41C362.673 333.662 364.966 334.526 367.135 335.398C368.065 328.321 368.028 321.261 367.75 314.142C367.513 308.082 367.182 301.954 366.021 295.99C363.281 281.918 356.383 268.811 347.693 257.554C340.043 247.645 329.631 240.724 319.207 234.101C316.101 232.128 313.319 230.144 310.031 228.454ZM218.192 274.375C206.112 279.853 193.93 285.66 181.503 290.29L169.954 293.971C165.704 295.377 161.276 297.224 156.862 297.981C159.933 295.378 164.323 293.346 168.125 292.003L174.252 290.015C174.976 289.8 176.426 289.586 176.983 289.123C172.481 288.049 168.026 287.621 163.438 288.44C162.059 288.687 160.675 289.254 159.357 289.721C156.082 290.88 152.868 292.24 149.875 294.022C149.102 294.482 146.344 296.152 146.147 296.901C145.532 299.237 145.627 301.925 145.616 304.329L145.608 314.563L145.632 327.838C145.638 329.676 145.329 332.526 145.875 334.24C147.044 334.996 153.258 333.685 154.808 333.356C166.127 330.951 175.446 324.567 184.75 318.02C189.259 314.848 193.773 311.767 197.955 308.154L211.694 295.507L220.946 287.696C222.442 286.452 224.992 284.812 225.92 283.167C226.248 282.586 226.143 282.25 226.064 281.625C225.151 280.25 220.505 274.613 219.16 274.209C218.82 274.107 218.515 274.278 218.192 274.375ZM194.068 241.125C188.714 243.868 183.783 247.305 178.819 250.699C165.756 259.628 153.944 268.895 148.899 284.577L148.213 286.693C147.632 288.331 146.997 290.625 147.065 292.375C147.393 292.374 147.658 292.364 147.983 292.304C150.196 291.332 152.22 290.04 154.409 289.022C157.686 287.498 161.728 286.483 165.32 286.054C169.096 285.604 172.205 285.736 175.997 286.172C176.529 286.233 177.695 286.53 178.169 286.243C180.621 284.755 186.632 270.062 187.862 266.941C189.27 263.368 190.289 259.526 191.324 255.826C192.664 251.03 193.946 246.309 194.708 241.375C194.284 241.042 194.507 241.092 194.068 241.125ZM297.535 216.705C297.495 217.185 297.517 218.44 297.218 218.75C297.032 219.375 296.83 219.985 297.125 220.627L297.373 221L297.446 226.875C297.456 227.689 297.646 228.943 297.484 229.718C298.756 231.868 298.248 237.372 298.064 239.926L297.755 243.245L297.702 243.496L297.404 246.024L297.625 247.06C298.103 246.473 297.693 245.933 298.125 245.377C298.542 246.005 298.198 246.286 298.409 246.895C298.124 248.017 297.763 250.163 297.102 251.06C296.984 252.216 296.629 253.441 296.253 254.538C296.099 254.986 295.689 255.775 295.649 256.215C295.587 256.896 296.148 258.171 296.286 258.875C297.057 262.801 297.507 266.619 298.838 270.441L298.947 270.75C299.223 271.55 299.555 272.277 299.953 273.024C303.243 279.198 309.054 283.929 314.891 287.611C317.371 289.176 320.003 290.711 322.82 291.564C324.195 289.18 325.205 286.022 325.046 283.226L325.02 282.875C324.837 280.074 322.087 277.726 320.706 275.392C318.834 272.227 317.535 268.449 316.191 265.018C313.397 257.886 311.517 250.532 309.655 243.125C308.47 238.414 307.648 233.279 305.976 228.729C304.821 225.585 302.694 222.427 300.877 219.625C299.901 218.119 299.08 216.726 297.75 215.477L297.361 215.588L297.535 216.705ZM139.57 90.125C139.615 91.3493 141.038 92.8305 141.915 93.6408C143.865 95.4421 145.619 96.4153 147.14 98.7219L139.811 94.8112C140.095 98.8919 140.729 102.977 141.577 106.977C142.089 109.392 142.65 111.999 143.777 114.202C145.281 117.142 147.895 120 150.386 122.148C152.103 123.63 154.02 124.851 155.797 126.266C159.706 129.377 163.138 132.792 166.343 136.619C169.425 140.298 169.247 146.224 169.647 150.812L170.626 157.822C171.698 156.042 171.459 153.643 171.515 151.615L171.791 145.086C171.817 143.122 171.644 141.2 171.927 139.25L171.978 138.854C172.064 138.23 172.124 137.816 172.492 137.3C173.522 135.853 173.518 133.111 173.252 131.415C172.823 128.67 171.401 126.007 170.885 123.196C170.185 119.385 170.701 115.266 169.805 111.526C169.254 109.226 166.946 107.162 165.428 105.4C162.966 102.542 160.455 99.0802 157.338 96.9305C155.865 95.9143 154.153 94.7751 152.529 94.059C150.587 93.2025 148.51 92.8871 146.5 92.2566C144.896 91.7536 141.412 89.7648 139.879 90.0259L139.57 90.125ZM359.416 96.5223C356.734 97.7803 356.19 99.2254 355.236 101.864C354.964 102.615 354.56 104.268 354.013 104.817C353.283 105.548 351.936 106.168 351.068 106.73C349.459 107.771 348.033 109.663 346.946 111.232C342.162 118.131 339.108 125.971 334.822 133.127C333.005 136.161 330.27 138.396 328.457 141.467C329.956 141.646 331.214 141.949 332.561 141.125L332.822 140.978L336.115 138.654L336.4 138.467C339.273 136.63 342.682 136.409 345.979 135.954C349.963 135.404 353.773 134.778 357.628 133.627C359.942 132.936 362.45 132.186 364.304 130.55C365.908 129.134 367.06 126.933 367.51 124.852L367.863 122.568C368.268 119.874 368.08 117.251 367.051 114.734C366.077 113.965 365.194 113.382 364.074 112.842C364.276 111.319 364.985 109.172 364.917 107.717C364.896 107.251 364.488 106.581 364.284 106.144C362.749 102.847 361.845 100.605 362.522 96.875C361.923 96.2778 361.08 96.3992 360.25 96.4127C359.963 96.4174 359.696 96.4697 359.416 96.5223ZM208.281 229.375C205.786 231.251 203.556 233.42 201.25 235.516C200.265 236.411 198.711 237.632 198.037 238.79C197.862 239.091 197.792 239.977 197.742 240.36C197.299 243.754 197.258 246.993 196.558 250.394C195.711 254.508 194.271 258.628 192.993 262.625L185.214 285.942L191.848 282.992L217.031 271.26L216.876 271.003C212.665 263.884 210.417 255.292 209.557 247.092L208.805 234.165C208.756 233.345 208.939 229.637 208.479 229.405L208.281 229.375ZM402.726 197.767C399.719 198.715 396.744 199.843 394.04 201.486C386.727 205.927 381.676 212.72 376.727 219.5C375.655 220.969 374.186 223.894 372.772 224.875L372.875 225.677C373.644 225.55 374.34 224.938 375.032 224.575L384.558 219.265C389.58 216.64 394.861 214.417 400.399 213.177C399.865 213.991 399.329 214.964 398.671 215.679C396.535 217.997 393.121 218.938 390.318 220.115C388.49 220.864 386.786 221.901 385.179 223.046C383.597 224.173 381.979 225.746 380 226.015L379.125 226.155L378.819 226.5C379.14 226.808 379.113 226.928 379.587 226.912C381.82 226.836 383.844 225.056 385.954 224.355C387.782 223.747 389.789 223.355 391.675 222.972C394.554 222.387 397.366 221.491 400.25 220.98C402.311 220.615 404.437 220.613 406.487 220.209C407.15 220.078 407.455 219.936 408.007 219.545C410.313 217.908 412.338 215.966 414.625 214.316C416.604 212.888 419.175 212.209 420.891 210.371C421.659 209.548 421.859 208.458 422.092 207.392C422.763 204.324 422.251 201.02 422.371 197.908C419.552 198.052 416.738 198.598 413.921 198.524C410.272 198.428 406.358 197.171 402.726 197.767ZM85.9253 176.836C88.1797 188.731 94.4698 200.992 104.724 207.909C108.958 210.765 113.521 213.236 118.417 214.767C122.103 215.918 125.889 216.459 129.695 217.003C131.92 217.322 134.179 217.795 136.425 217.908L136.516 217.375L135.42 216.29L135.184 216.093C132.518 213.837 130.02 210.894 127.542 208.395C121.693 202.496 115.986 196.716 109.608 191.375C107.706 189.782 105.842 187.941 103.625 186.789L103.079 187.061C102.933 187.912 102.969 188.226 102.372 188.875L101.625 188.943C101.42 188.521 101.411 188.373 101.408 187.89C101.403 187.059 101.08 186.647 100.508 186.097L99.375 185.068L99.0938 185.147C98.6329 185.271 98.8014 185.228 98.25 185.31L85.9253 176.836ZM125.388 124.753C126.985 130.791 129.419 136.874 133.716 141.531C134.484 142.363 135.291 143.381 136.281 143.951L136.875 144.249L137.179 144.408C142.931 147.364 149.263 148.021 155.625 148.203L155.924 147.743C153.004 144.322 148.059 142.811 144.836 139.619C142.941 137.741 141.379 135.611 139.856 133.428C138.479 131.455 137.122 129.29 135.126 127.881C132.207 125.819 128.737 125.611 125.388 124.753ZM179.244 107.375C177.903 108.895 177.871 111.314 177.402 113.238C176.424 117.252 174.85 121.216 175.111 125.424C175.241 127.511 175.447 132.706 177.059 134.187C177.319 134.425 177.347 134.415 177.625 134.533C178.457 134.745 178.874 134.545 179.625 134.228C180.441 132.879 180.347 130.443 180.511 128.875C181.107 123.198 182.299 116.311 180.901 110.727C180.648 109.716 180.399 108.109 179.664 107.374L179.244 107.375ZM263.133 279.322L261.305 279.57L261.125 280.127C261.766 280.314 262.775 280.476 263.349 280.775C263.92 281.072 265.334 283.275 265.674 283.889L265.985 284.5L266.128 284.775C267.263 287.017 267.421 290.047 266.623 292.429C265.902 294.582 264.381 296.936 262.295 298.007C259.333 299.527 254.693 299.008 251.68 297.963C249.491 297.204 247.567 295.027 246.586 292.949C244.842 289.257 245.313 286.351 246.197 282.52C245.714 282.727 244.631 284.405 244.393 284.926L244.205 285.491C243.307 288.298 242.852 290.977 244.211 293.75C245.348 296.069 249.786 300.243 252.25 300.918C255.528 301.815 259.507 301.591 262.384 299.769C264.07 298.701 265.331 297.474 266.524 295.875L266.786 295.53C268.725 292.923 268.874 288.49 268.367 285.375C267.974 282.959 265.672 281.549 264.375 279.544C263.851 279.346 263.687 279.166 263.133 279.322ZM177.775 100.125C176.23 100.588 174.67 101.778 173.936 103.245C172.741 105.632 172.725 109.097 172.109 111.731C170.776 117.439 171.781 122.838 173.248 128.375L173.69 128.704C173.924 127.643 173.737 126.572 173.731 125.494C173.725 124.31 173.951 123.071 174.161 121.906C174.953 117.531 176.309 113.041 177.524 108.75C178.024 106.985 178.834 105.118 178.972 103.283C179.047 102.29 178.691 101.226 178.449 100.275L177.775 100.125ZM257.373 274.125C255.928 274.702 254.537 275.459 253.086 275.991C252.254 276.295 250.06 276.743 249.484 277.267C248.486 278.176 247.738 280.696 246.875 281.877L248.286 282.311C248.82 282.451 249.221 282.335 249.75 282.229C250.609 283.215 250.444 284.636 250.777 285.875C250.971 286.601 251.335 287.198 251.625 287.877L251.701 288.136C252.045 289.224 253.708 290.889 254.776 291.339C255.793 291.767 257.104 291.682 258.092 291.205C258.954 290.788 259.466 290.084 260.02 289.332C261.057 287.69 261.397 286.808 261.125 284.873L260.873 284.625C260.557 285.064 260.486 285.454 260.349 285.969C259.972 287.381 259.295 288.391 258.002 289.141C257.163 289.628 255.395 289.619 254.489 289.314C253.576 289.007 252.759 288.355 251.981 287.807C251.6 285.495 250.842 281.805 252.304 279.767C253.245 278.456 254.685 277.897 255.672 276.625C256.399 275.69 257.398 275.133 258.127 274.25C257.656 274.075 257.907 274.122 257.373 274.125ZM238.13 164.287C237.965 164.916 238.062 165.127 237.501 165.501C237.19 166.668 237.375 168.237 237.378 169.455C237.386 172.6 237.621 175.91 237.189 179C237.051 179.983 237.237 180.659 236.877 181.625L236.751 182.251L236.627 182.571C236.182 183.873 236.509 185.391 235.8 186.609C235.228 187.591 235.335 189.43 235 190.625L235.188 190.938L235.438 190.812L235.728 190.939C235.976 190.431 236.064 190.131 236.065 189.565C236.332 189.859 236.197 189.668 236.399 190.183C236.501 190.079 236.689 189.169 236.742 188.975C237.19 187.326 237.711 185.635 237.957 183.943C238.873 177.636 238.896 170.614 238.13 164.287ZM297 230.906C296.56 231.965 296.692 233.13 296.454 234.25L296.26 235.766C296.158 240.48 295.736 244.728 294.322 249.242C294.43 249.387 294.617 249.618 294.67 249.787C294.852 250.369 294.72 250.551 295.125 251.123C295.269 250.627 295.248 250.849 295.212 250.289L295.178 249.875C295.802 248.931 296.228 248.225 296.224 247.059C296.222 246.59 296.155 246.352 296.377 245.927C296.762 245.193 296.779 244.218 297.082 243.4L297.165 243.183L297.702 243.496L297.755 243.245L298.064 239.926C298.248 237.372 298.756 231.868 297.484 229.718C297.086 230.221 297.051 230.271 297 230.906ZM212.251 228.069C212.349 229.043 212.292 229.904 212.183 230.875C211.981 230.283 212.105 228.22 211.777 228.008C211.207 229.394 211.038 239.467 211.616 240.868L211.75 241.125C212.301 242.618 212.414 244.46 212.49 246.04C212.526 246.798 212.379 248.924 212.882 249.375L212.888 249.845C212.908 251.121 212.964 252.025 213.625 253.164L213.564 253.514C213.49 254.079 213.556 254.538 213.625 255.099C214.316 254.237 213.752 253.439 214.176 252.474C213.387 247.404 213.092 242.028 212.744 236.902L212.538 230.597C212.521 229.778 212.656 228.775 212.251 228.069ZM277.761 388.36C277.095 384.12 276.783 379.899 277.059 375.606C277.179 373.738 277.579 371.91 277.718 370.041L277.649 369.812C277.469 369.202 277.514 368.702 277.402 368.125L277.28 367.875C277.142 368.361 277.057 370.415 276.797 370.625L276.61 370.375C276.213 373.978 274.861 378.903 275.914 382.375L276.625 388.438L276.955 388.625C277.038 389.167 276.946 389.486 277.375 389.855C277.463 389.254 277.501 388.917 277.761 388.36ZM183.984 132.16C184.753 127.097 184.224 122.368 183.585 117.334L183.119 117.59C182.861 117.157 182.911 117.387 182.937 116.948C182.983 116.159 182.957 115.751 182.726 115C182.552 114.432 182.521 113.763 182.484 113.172C182.428 112.266 182.168 111.379 181.948 110.501L181.751 110.501C181.466 111.194 181.553 112.413 181.875 113.138L182.138 113.5C182.202 114.629 181.987 120.012 182.438 120.499L182.52 120.273L182.81 119.625L182.845 117.765C183.255 118.795 182.93 120.594 182.948 121.745C182.994 124.826 183.52 127.541 182.843 130.625C182.991 131.084 183.146 131.47 183.418 131.875L183.625 130.974L183.984 132.16ZM111.374 252.201C112.024 253.109 111.838 253.787 111.671 254.883C111.619 255.222 111.557 255.576 111.456 255.905L112.239 255.467C112.682 254.235 112.747 252.905 113.153 251.658C113.851 249.508 114.825 247.395 115.704 245.312L115.683 245.071C115.641 244.535 115.567 244.12 115.827 243.625L115.625 243.377L115 243.875L114.999 244.163L114.69 244.5L114.413 245.06C114.257 245.385 114.182 245.568 113.917 245.812C113.617 246.088 113.532 246.37 113.365 246.734L112.963 247.469C112.404 248.424 113.029 247.284 112.623 248.375L112.437 248.664C112.187 249.084 112.172 249.397 112.125 249.873L111.874 249.312L111.853 249.687C111.8 250.547 111.801 251.444 111.374 252.201ZM169.394 60.5277L169.752 60.3857L169.983 60.375C170.202 58.7295 170.043 57.0478 170.021 55.3904L170.128 49.5C170.663 48.6936 170.464 47.7136 170.751 46.8108C170.994 46.0497 171.232 45.3494 171.417 44.5625L171 44.6058L170.506 44.0174C168.75 49.037 168.427 55.2511 169.379 60.4996L169.394 60.5277ZM257.811 384.468L255.969 373.018L255.552 372.75L255.875 370.817L255.5 370.377C254.291 372.003 255.305 377.182 255.413 379.375L255.75 379.623C255.994 380.346 255.767 380.813 256.127 381.5L256.251 381.999L256.322 382.265C256.428 382.788 256.387 383.344 256.377 383.875L256.75 384.123L257.122 384.607L257.581 384.45L257.811 384.468ZM297.404 246.024C296.921 247.314 296.568 249.532 295.921 250.602C295.533 251.243 295.492 252.441 295.52 253.18C295.536 253.613 295.408 253.965 295.285 254.375L295.704 254.438L296.227 252.625L296.25 252.341C296.302 251.875 296.479 251.541 296.673 251.116L297.102 251.06C297.763 250.163 298.124 248.017 298.409 246.895C298.198 246.286 298.542 246.005 298.125 245.377C297.693 245.933 298.103 246.473 297.625 247.06L297.404 246.024ZM182.882 183.338C183.365 180.345 183.24 177.946 182.728 174.983L182.232 175L182.001 175.001C181.87 175.525 181.903 175.912 181.894 176.434C181.888 176.805 181.864 176.707 181.639 177.125L181.765 177.428C182.42 179.053 182.266 180.15 182.044 181.816C181.969 182.38 181.985 182.145 182.015 182.75L182.375 182.802L182.56 181.751L182.882 183.338ZM346.312 157.792C345.285 158.423 343.833 158.236 342.625 158.127L342.556 158.444C345.057 158.849 347.821 158.547 350.375 158.556L350.623 158.375C350.229 158.098 350.08 158.064 349.868 157.617C348.677 157.797 347.513 157.79 346.312 157.792ZM111.374 252.201C111.336 252.829 111.411 254.979 111 255.327L110.756 255.5C110.54 256.561 110.506 257.313 110.73 258.375L110.536 258.602C110.19 259.129 110.205 259.765 110.159 260.375L110.412 260.912L110.703 259.727C111.008 258.478 111.048 257.115 111.456 255.905C111.557 255.576 111.619 255.222 111.671 254.883C111.838 253.787 112.024 253.109 111.374 252.201ZM363.263 358.125C363.235 358.343 363.222 359.032 363.125 359.187C363.077 359.265 362.639 359.572 362.623 359.625C362.486 360.053 362.889 360.241 362.562 360.706L362.372 360.375L362.341 360.682C362.274 361.304 362.276 361.853 361.895 362.375L362.483 362.328C362.796 361.42 362.996 360.421 363.375 359.556L363.755 358.375C363.351 358.091 363.534 358.101 363.263 358.125Z"/>
	<path fill="#010000" fill-opacity="0.97647059" d="M363.263 358.125C363.534 358.101 363.351 358.091 363.755 358.375L363.375 359.556C362.996 360.421 362.796 361.42 362.483 362.328L361.895 362.375C362.276 361.853 362.274 361.304 362.341 360.682L362.372 360.375L362.562 360.706C362.889 360.241 362.486 360.053 362.623 359.625C362.639 359.572 363.077 359.265 363.125 359.187C363.222 359.032 363.235 358.343 363.263 358.125Z"/>
	<path d="M111.374 252.201C112.024 253.109 111.838 253.787 111.671 254.883C111.619 255.222 111.557 255.576 111.456 255.905C111.048 257.115 111.008 258.478 110.703 259.727L110.412 260.912L110.159 260.375C110.205 259.765 110.19 259.129 110.536 258.602L110.73 258.375C110.506 257.313 110.54 256.561 110.756 255.5L111 255.327C111.411 254.979 111.336 252.829 111.374 252.201Z"/>
	<path fill="#010000" fill-opacity="0.97647059" d="M346.312 157.792C347.513 157.79 348.677 157.797 349.868 157.617C350.08 158.064 350.229 158.098 350.623 158.375L350.375 158.556C347.821 158.547 345.057 158.849 342.556 158.444L342.625 158.127C343.833 158.236 345.285 158.423 346.312 157.792Z"/>
	<defs>
		<linearGradient id="gradient_1" gradientUnits="userSpaceOnUse" x1="181.99178" y1="177.72972" x2="182.76941" y2="177.41437">
			<stop offset="0" stop-color="black" stop-opacity="0.93725491"/>
			<stop offset="1" stop-color="#010001" stop-opacity="0.98039216"/>
		</linearGradient>
	</defs>
	<path fill="url(#gradient_1)" d="M182.882 183.338L182.56 181.751L182.375 182.802L182.015 182.75C181.985 182.145 181.969 182.38 182.044 181.816C182.266 180.15 182.42 179.053 181.765 177.428L181.639 177.125C181.864 176.707 181.888 176.805 181.894 176.434C181.903 175.912 181.87 175.525 182.001 175.001L182.232 175L182.728 174.983C183.24 177.946 183.365 180.345 182.882 183.338Z"/>
	<path d="M297.404 246.024L297.625 247.06C298.103 246.473 297.693 245.933 298.125 245.377C298.542 246.005 298.198 246.286 298.409 246.895C298.124 248.017 297.763 250.163 297.102 251.06L296.673 251.116C296.479 251.541 296.302 251.875 296.25 252.341L296.227 252.625L295.704 254.438L295.285 254.375C295.408 253.965 295.536 253.613 295.52 253.18C295.492 252.441 295.533 251.243 295.921 250.602C296.568 249.532 296.921 247.314 297.404 246.024Z"/>
	<path fill="#010000" fill-opacity="0.97647059" d="M257.811 384.468L257.581 384.45L257.122 384.607L256.75 384.123L256.377 383.875C256.387 383.344 256.428 382.788 256.322 382.265L256.251 381.999L256.127 381.5C255.767 380.813 255.994 380.346 255.75 379.623L255.413 379.375C255.305 377.182 254.291 372.003 255.5 370.377L255.875 370.817L255.552 372.75L255.969 373.018L257.811 384.468Z"/>
	<path d="M169.394 60.5277L169.379 60.4996C168.427 55.2511 168.75 49.037 170.506 44.0174L171 44.6058L171.417 44.5625C171.232 45.3494 170.994 46.0497 170.751 46.8108C170.464 47.7136 170.663 48.6936 170.128 49.5L170.021 55.3904C170.043 57.0478 170.202 58.7295 169.983 60.375L169.752 60.3857L169.394 60.5277Z"/>
	<defs>
		<linearGradient id="gradient_2" gradientUnits="userSpaceOnUse" x1="112.05364" y1="248.50946" x2="113.71022" y2="249.18871">
			<stop offset="0" stop-color="#010001" stop-opacity="0.96862745"/>
			<stop offset="1" stop-color="black"/>
		</linearGradient>
	</defs>
	<path fill="url(#gradient_2)" d="M111.374 252.201C111.801 251.444 111.8 250.547 111.853 249.687L111.874 249.312L112.125 249.873C112.172 249.397 112.187 249.084 112.437 248.664L112.623 248.375C113.029 247.284 112.404 248.424 112.963 247.469L113.365 246.734C113.532 246.37 113.617 246.088 113.917 245.812C114.182 245.568 114.257 245.385 114.413 245.06L114.69 244.5L114.999 244.163L115 243.875L115.625 243.377L115.827 243.625C115.567 244.12 115.641 244.535 115.683 245.071L115.704 245.312C114.825 247.395 113.851 249.508 113.153 251.658C112.747 252.905 112.682 254.235 112.239 255.467L111.456 255.905C111.557 255.576 111.619 255.222 111.671 254.883C111.838 253.787 112.024 253.109 111.374 252.201Z"/>
	<path d="M183.984 132.16L183.625 130.974L183.418 131.875C183.146 131.47 182.991 131.084 182.843 130.625C183.52 127.541 182.994 124.826 182.948 121.745C182.93 120.594 183.255 118.795 182.845 117.765L182.81 119.625L182.52 120.273L182.438 120.499C181.987 120.012 182.202 114.629 182.138 113.5L181.875 113.138C181.553 112.413 181.466 111.194 181.751 110.501L181.948 110.501C182.168 111.379 182.428 112.266 182.484 113.172C182.521 113.763 182.552 114.432 182.726 115C182.957 115.751 182.983 116.159 182.937 116.948C182.911 117.387 182.861 117.157 183.119 117.59L183.585 117.334C184.224 122.368 184.753 127.097 183.984 132.16Z"/>
	<path d="M277.761 388.36C277.501 388.917 277.463 389.254 277.375 389.855C276.946 389.486 277.038 389.167 276.955 388.625L276.625 388.438L275.914 382.375C274.861 378.903 276.213 373.978 276.61 370.375L276.797 370.625C277.057 370.415 277.142 368.361 277.28 367.875L277.402 368.125C277.514 368.702 277.469 369.202 277.649 369.812L277.718 370.041C277.579 371.91 277.179 373.738 277.059 375.606C276.783 379.899 277.095 384.12 277.761 388.36Z"/>
	<path d="M212.251 228.069C212.656 228.775 212.521 229.778 212.538 230.597L212.744 236.902C213.092 242.028 213.387 247.404 214.176 252.474C213.752 253.439 214.316 254.237 213.625 255.099C213.556 254.538 213.49 254.079 213.564 253.514L213.625 253.164C212.964 252.025 212.908 251.121 212.888 249.845L212.882 249.375C212.379 248.924 212.526 246.798 212.49 246.04C212.414 244.46 212.301 242.618 211.75 241.125L211.616 240.868C211.038 239.467 211.207 229.394 211.777 228.008C212.105 228.22 211.981 230.283 212.183 230.875C212.292 229.904 212.349 229.043 212.251 228.069Z"/>
	<path fill="#010000" fill-opacity="0.96470588" d="M297 230.906C297.051 230.271 297.086 230.221 297.484 229.718C298.756 231.868 298.248 237.372 298.064 239.926L297.755 243.245L297.702 243.496L297.165 243.183L297.082 243.4C296.779 244.218 296.762 245.193 296.377 245.927C296.155 246.352 296.222 246.59 296.224 247.059C296.228 248.225 295.802 248.931 295.178 249.875L295.212 250.289C295.248 250.849 295.269 250.627 295.125 251.123C294.72 250.551 294.852 250.369 294.67 249.787C294.617 249.618 294.43 249.387 294.322 249.242C295.736 244.728 296.158 240.48 296.26 235.766L296.454 234.25C296.692 233.13 296.56 231.965 297 230.906ZM297 230.906C297.495 233.102 297.462 235.904 297.286 238.145L297.165 243.183L297.702 243.496L297.755 243.245L298.064 239.926C298.248 237.372 298.756 231.868 297.484 229.718C297.086 230.221 297.051 230.271 297 230.906Z"/>
	<path d="M297 230.906C297.051 230.271 297.086 230.221 297.484 229.718C298.756 231.868 298.248 237.372 298.064 239.926L297.755 243.245L297.702 243.496L297.165 243.183L297.286 238.145C297.462 235.904 297.495 233.102 297 230.906Z"/>
	<path fill="#010000" fill-opacity="0.97647059" d="M238.13 164.287C238.896 170.614 238.873 177.636 237.957 183.943C237.711 185.635 237.19 187.326 236.742 188.975C236.689 189.169 236.501 190.079 236.399 190.183C236.197 189.668 236.332 189.859 236.065 189.565C236.064 190.131 235.976 190.431 235.728 190.939L235.438 190.812L235.188 190.938L235 190.625C235.335 189.43 235.228 187.591 235.8 186.609C236.509 185.391 236.182 183.873 236.627 182.571L236.751 182.251L236.877 181.625C237.237 180.659 237.051 179.983 237.189 179C237.621 175.91 237.386 172.6 237.378 169.455C237.375 168.237 237.19 166.668 237.501 165.501C238.062 165.127 237.965 164.916 238.13 164.287Z"/>
	<path d="M299.025 230.915C299.792 236.152 299.152 241.694 298.409 246.895C298.198 246.286 298.542 246.005 298.125 245.377C297.693 245.933 298.103 246.473 297.625 247.06L297.404 246.024L297.702 243.496L297.755 243.245L298.064 239.926C299.029 238.813 297.865 235.157 298.58 233.603C298.977 232.738 298.957 231.855 299.025 230.915Z"/>
	<path d="M297.535 216.705C298.187 221.308 299.306 226.243 299.025 230.915C298.957 231.855 298.977 232.738 298.58 233.603C297.865 235.157 299.029 238.813 298.064 239.926C298.248 237.372 298.756 231.868 297.484 229.718C297.646 228.943 297.456 227.689 297.446 226.875L297.373 221L297.125 220.627C296.83 219.985 297.032 219.375 297.218 218.75C297.517 218.44 297.495 217.185 297.535 216.705Z"/>
	<path d="M283.842 211.375L284.503 211.306C285.068 211.735 285.363 211.969 285.683 212.625C285.066 213.434 283.957 213.915 283.03 214.334C280.155 215.632 277.02 216.686 273.83 216.735C271.504 216.77 268.904 216.225 266.625 216.726C264.282 217.241 261.778 218.901 259.558 219.883C258.997 220.119 259.281 220.07 258.708 220.051C258.428 219.468 258.566 219.098 258.685 218.491C259.983 217.221 262.094 215.815 263.891 215.452L264.185 215.396C266.414 214.92 268.242 215.077 270.5 215.28C272.131 215.428 273.888 215.716 275.463 215.15L275.875 214.99L283.842 211.375Z"/>
	<path d="M265.733 241.375C268.118 240.863 270.437 242.524 272.377 243.668C270.582 245.689 269.18 248.115 267.018 249.768C265.911 249.589 264.241 249.372 263.476 248.5L263.75 248.19C264.587 248.366 265.31 248.624 266.125 248.244C267.16 247.242 268.621 245.72 268.729 244.25C268.196 243.734 267.808 243.588 267.125 243.348C266.067 243.791 265.273 244.569 264.38 245.265L259.144 249.347C256.519 251.041 253.92 252.554 251.126 253.961C249.671 254.693 248.231 255.535 246.592 255.733L247.309 255.094C249.1 253.527 251.349 252.63 253.429 251.513C254.84 250.755 256.14 249.821 257.423 248.867C258.933 247.744 260.369 246.579 261.682 245.227C262.966 243.905 264.171 242.376 265.733 241.375Z"/>
	<path d="M190.492 326.125L191.375 326.038L191.77 326.5C191.51 328.032 190.08 328.932 189.314 330.275C188.665 331.413 188.226 332.968 188.001 334.268C187.622 336.467 188.423 339.522 189.745 341.32L192.517 344.857C193.201 345.651 194.19 346.635 194.567 347.622C194.989 348.729 194.595 351.237 194.56 352.463C194.448 356.363 194.212 360.425 194.603 364.314C195.043 368.692 196.498 373.567 197.801 377.777L194.482 376.114C190.628 373.481 187.136 369.53 184.938 365.419C181.224 358.473 180.893 350.241 182.974 342.75C183.579 340.574 184.494 338.574 185.323 336.482C186.777 332.81 188.165 329.352 190.492 326.125Z"/>
	<path d="M314.856 352.625C315.587 352.403 316.639 352.801 317.375 352.997C322.563 354.379 326.967 357.132 331.667 359.56C330.71 360.687 329.535 361.962 329.277 363.468C329.128 364.332 329.145 365.146 328.835 365.988C328.192 367.736 326.986 369.348 325.933 370.865C320.531 378.65 312.809 384.433 304.192 388.253L303.018 388.764C299.723 390.175 296.528 390.985 293.125 391.996C292.693 392.124 291.366 392.712 291.019 392.574L302.409 374.52L310.485 360.052C311.714 357.831 312.813 354.174 314.856 352.625Z"/>
	<path d="M215.04 391.011L215.437 403.741C213.45 401.883 211.997 399.62 210.548 397.336C206.856 391.516 204.165 385.397 201.723 378.978C200.863 376.718 199.875 374.606 199.171 372.277C198.058 368.59 198.034 364.629 197.895 360.801C197.748 356.733 197.454 352.186 198.607 348.244C201.812 349.103 204.513 350.91 207.379 352.485C210.636 354.276 213.935 355.667 216.625 358.32C217.012 358.702 217.8 359.493 218.011 359.99C218.16 360.34 218.003 361.635 217.992 362.058C217.878 366.531 216.838 371.19 216.339 375.654L215.269 386.638C215.224 387.786 215.43 390.006 215.04 391.011ZM215.04 391.011C215.43 390.006 215.224 387.786 215.269 386.638L215.223 386.396C215.004 385.164 215.114 383.972 214.872 382.75L214.778 381.672L214.533 381.625L214.125 394.5C214.763 393.592 214.084 391.289 215.04 391.011Z"/>
	<path d="M215.04 391.011C214.084 391.289 214.763 393.592 214.125 394.5L214.533 381.625L214.778 381.672L214.872 382.75C215.114 383.972 215.004 385.164 215.223 386.396L215.269 386.638C215.224 387.786 215.43 390.006 215.04 391.011Z"/>
</svg>
