<?xml version="1.0" encoding="utf-8" ?>
<svg xmlns="http://www.w3.org/2000/svg" xmlns:xlink="http://www.w3.org/1999/xlink" width="512" height="512">
	<path d="M187.144 460.496C147.319 440.11 117.604 399.091 108.79 355.556C97.3852 299.22 117.59 238.268 163.434 202.871C168.573 198.903 173.893 195.24 178.507 190.644C206.457 162.805 205.013 117.43 174.819 92.0935C171.062 88.9415 170.138 89.6996 170.131 84.6574L170.198 29.4821L341.08 29.4623L341.72 84.9413C341.692 90.6633 340.072 88.8765 335.363 92.9861C307.159 117.6 306.278 163.723 332.781 190.191C338.578 195.98 345.29 200.547 351.686 205.619C422.651 261.881 423.04 372.907 359.402 435.691C313.203 481.27 244.089 488.628 187.144 460.496ZM256.418 71.9658L217.127 72.2266C217.367 72.4167 221.959 79.5601 222.431 80.2668C242.092 109.681 245.909 146.851 234.456 180.068C227.285 200.865 214.406 216.482 197.606 230.254C191.293 235.43 184.902 239.912 179.251 245.875C166.082 259.775 155.329 278.69 150.754 297.375C135.306 360.465 179.612 428.752 245.091 434.692C248.603 435.01 252.27 434.866 255.801 434.906L255.942 434.811C277.93 434.696 296.392 429.465 314.765 416.661C371.628 377.034 381.892 293.915 332.093 245.023C323.217 236.31 312.885 229.217 303.816 220.698C266.054 185.225 261.785 130.795 285.438 86.4412L290.125 78.5047C291.537 76.3603 292.866 73.9375 294.679 72.1292L256.418 71.9658Z"/>
	<path d="M222.209 335.052L219.178 332.711C196.905 314.578 198.48 282.982 216.049 261.551C233.554 268.36 244.426 275.921 255.559 290.626C264.014 280.795 281.462 264.473 294.839 261.625L295.625 261.769C298.742 264.715 300.875 268.472 302.728 272.308C312.669 292.883 310.785 316.871 292.484 332.229C286.109 337.579 278.982 341.725 272.777 347.374C265.682 353.834 260.382 361.596 254.561 369.138C246.089 353.469 236.731 345.549 222.209 335.052Z"/>
	<path d="M248.532 419.5L236.32 419.625C216.693 419.523 200.503 408.771 190.698 391.747C183.127 378.603 181.097 362.96 181.749 348.045C184.879 348.202 187.982 348.132 191.014 348.441C231.271 352.546 248.229 381.817 248.931 419.125L248.532 419.5Z"/>
	<path d="M271.261 419.465L261.956 419.713C262.482 418.112 262.496 416.266 262.595 414.592L263.112 408.236C266.872 373.638 285.053 351.621 321.148 348.854C324.076 348.263 327.328 348.432 330.259 348.712C330.349 354.161 330.371 359.61 329.612 365.016C326.451 387.53 310.639 411.203 287.756 417.246C282.35 418.673 276.816 419.106 271.261 419.465Z"/>
</svg>
